<?xml version="1.0" standalone="no"?>
<!DOCTYPE svg PUBLIC "-//W3C//DTD SVG 20010904//EN"
 "http://www.w3.org/TR/2001/REC-SVG-20010904/DTD/svg10.dtd">
<svg version="1.0" xmlns="http://www.w3.org/2000/svg"
 width="1220.000000pt" height="595.000000pt" viewBox="0 0 1220.000000 595.000000"
 preserveAspectRatio="xMidYMid meet">

<g transform="translate(0.000000,595.000000) scale(0.100000,-0.100000)"
fill="#000000" stroke="none">
<path d="M4460 4619 c-75 -30 -137 -113 -147 -197 -18 -158 140 -294 294 -253
170 46 231 263 110 389 -50 52 -97 72 -169 71 -35 0 -74 -5 -88 -10z"/>
<path d="M5245 4491 c-60 -27 -103 -67 -133 -125 l-27 -51 0 -1000 c0 -931 1
-1003 17 -1037 28 -58 78 -109 133 -134 l50 -24 563 0 c642 0 655 1 810 76
202 97 315 277 329 520 16 287 -144 538 -396 619 l-54 18 67 26 c143 56 255
173 307 321 30 88 38 256 15 354 -40 168 -149 303 -308 380 -155 75 -170 76
-790 76 -504 0 -546 -2 -583 -19z m1079 -370 c146 -58 222 -213 182 -369 -25
-100 -76 -160 -173 -205 -47 -21 -59 -22 -440 -25 l-393 -3 0 309 c0 170 3
312 7 316 4 4 176 6 383 4 367 -3 376 -4 434 -27z m57 -1009 c74 -35 121 -82
153 -151 30 -66 30 -226 0 -292 -45 -97 -133 -160 -250 -179 -32 -6 -222 -10
-421 -10 l-363 0 0 336 0 335 408 -3 407 -3 66 -33z"/>
<path d="M7260 4487 c-30 -16 -55 -40 -75 -72 l-30 -48 0 -1051 c0 -1047 0
-1051 21 -1091 11 -22 40 -53 63 -70 34 -24 54 -30 109 -33 55 -2 74 1 106 20
57 34 94 85 106 147 5 30 10 202 10 386 l0 333 388 5 c317 3 399 7 452 21 156
39 267 101 365 201 84 85 127 155 168 272 26 76 31 106 35 219 5 155 -11 247
-64 362 -73 160 -179 269 -329 342 -157 75 -147 74 -745 78 l-535 3 -45 -24z
m981 -351 c137 -29 228 -99 282 -214 28 -60 31 -76 31 -157 -2 -192 -103 -321
-289 -370 -47 -12 -124 -15 -377 -15 l-318 0 0 385 0 385 303 0 c221 0 320 -4
368 -14z"/>
<path d="M9315 4494 c-45 -24 -75 -55 -96 -96 -19 -37 -19 -70 -17 -1096 l3
-1058 24 -36 c13 -19 40 -46 59 -59 l36 -24 605 -3 c420 -2 614 1 632 8 69 29
120 126 105 202 -9 48 -44 97 -86 122 -34 20 -54 21 -500 26 l-465 5 -5 940
c-5 929 -5 940 -26 980 -11 22 -40 53 -63 70 -35 24 -53 30 -109 32 -48 2 -76
-1 -97 -13z"/>
<path d="M4506 4035 c-47 -16 -91 -57 -117 -107 -18 -36 -19 -73 -19 -1050 0
-626 -4 -1040 -10 -1083 -20 -137 -92 -247 -197 -302 -140 -74 -295 -71 -459
8 -121 58 -195 51 -262 -25 -38 -44 -46 -70 -40 -141 7 -79 38 -114 151 -170
122 -60 224 -85 373 -92 384 -18 678 144 794 437 12 30 30 93 41 140 18 80 19
144 19 1163 0 1047 -1 1079 -19 1116 -37 71 -116 122 -191 121 -14 -1 -42 -7
-64 -15z"/>
<path d="M2549 4005 c-3 -2 -52 -7 -109 -10 -57 -4 -107 -8 -111 -11 -4 -2
-33 -5 -66 -5 -32 -1 -68 -5 -81 -10 -13 -5 -21 -5 -18 -1 2 4 -24 5 -59 1
-75 -7 -100 -25 -217 -147 -190 -199 -362 -457 -469 -704 -45 -102 -100 -250
-96 -254 1 -2 36 43 77 99 292 398 672 746 1065 977 101 59 100 58 93 65 -2 3
-7 3 -9 0z"/>
<path d="M2480 3180 c0 -5 5 -10 11 -10 5 0 7 5 4 10 -3 6 -8 10 -11 10 -2 0
-4 -4 -4 -10z"/>
<path d="M2650 3159 c0 -5 -59 -7 -139 -5 l-139 3 -49 -65 c-179 -243 -285
-523 -318 -837 l-6 -60 37 65 c20 36 59 106 86 155 126 225 256 395 450 588
82 81 148 147 146 147 -2 0 -18 4 -36 9 -19 6 -32 6 -32 0z"/>
<path d="M9995 1748 c-19 -50 -80 -360 -73 -364 5 -3 12 -3 15 0 6 6 83 341
83 362 0 17 -19 18 -25 2z"/>
<path d="M7451 1736 c-8 -10 -8 -16 2 -24 17 -14 42 2 34 22 -8 20 -21 20 -36
2z"/>
<path d="M7256 1714 c-3 -9 -6 -24 -6 -34 0 -11 -8 -20 -22 -22 -25 -4 -37
-28 -14 -28 21 0 20 -21 -4 -125 -11 -47 -20 -90 -20 -95 0 -17 48 -42 70 -35
25 8 27 35 2 28 -38 -9 -41 17 -18 122 22 96 24 100 52 105 35 6 38 24 5 28
-21 3 -23 8 -18 38 4 24 2 34 -8 34 -7 0 -16 -7 -19 -16z"/>
<path d="M5210 1652 c-83 -37 -125 -145 -86 -220 32 -62 144 -78 187 -26 18
22 4 27 -30 10 -46 -24 -79 -20 -113 14 -28 28 -30 35 -26 82 5 43 11 57 42
85 41 38 95 45 134 17 26 -18 38 -13 28 11 -11 29 -94 45 -136 27z"/>
<path d="M5509 1637 c-48 -31 -82 -100 -76 -155 12 -116 153 -146 230 -49 25
30 32 49 35 97 4 57 3 61 -31 95 -30 30 -42 35 -80 35 -29 0 -55 -8 -78 -23z
m135 -26 c38 -42 29 -136 -18 -180 -13 -13 -41 -25 -63 -28 -48 -6 -90 23 -98
70 -8 42 18 110 53 137 33 26 103 27 126 1z"/>
<path d="M5853 1647 c-5 -6 -20 -59 -32 -117 -13 -58 -25 -115 -28 -127 -4
-16 -1 -23 9 -23 11 0 22 31 38 106 22 97 26 108 54 125 17 10 48 19 68 19 56
0 62 -20 38 -126 -23 -104 -24 -127 -8 -122 6 2 23 53 36 112 24 108 24 109 4
135 -23 32 -82 40 -117 17 -27 -18 -49 -21 -40 -7 9 15 -12 22 -22 8z"/>
<path d="M6203 1647 c-5 -6 -20 -59 -32 -117 -13 -58 -25 -115 -28 -127 -4
-16 -1 -23 9 -23 11 0 22 31 38 106 22 97 26 108 54 125 17 10 48 19 68 19 56
0 62 -20 38 -126 -23 -104 -24 -127 -8 -122 6 2 23 53 36 112 24 108 24 109 4
135 -23 32 -82 40 -117 17 -27 -18 -49 -21 -40 -7 9 15 -12 22 -22 8z"/>
<path d="M6580 1638 c-51 -35 -73 -71 -78 -131 -4 -46 -1 -57 23 -85 35 -42
93 -58 148 -40 22 7 43 19 45 27 4 11 -1 12 -19 6 -13 -4 -43 -10 -66 -12 -37
-4 -46 -1 -73 26 -21 20 -30 39 -28 53 3 22 7 23 116 26 128 3 133 6 113 73
-22 74 -114 102 -181 57z m132 -26 c10 -9 20 -32 24 -50 l7 -32 -102 0 c-81 0
-101 3 -101 14 0 19 48 76 74 87 28 12 77 2 98 -19z"/>
<path d="M6944 1641 c-62 -38 -95 -125 -71 -190 17 -47 56 -74 109 -75 49 -1
107 29 90 46 -7 7 -19 4 -36 -7 -34 -22 -94 -14 -118 16 -36 44 -17 148 34
183 29 20 102 21 118 1 13 -16 40 -21 40 -7 -1 47 -107 69 -166 33z"/>
<path d="M7444 1652 c-13 -8 -69 -261 -60 -269 14 -14 26 17 51 130 27 118 29
153 9 139z"/>
<path d="M7601 1640 c-5 -14 -20 -70 -31 -125 -12 -55 -24 -108 -26 -117 -4
-12 0 -18 10 -18 16 0 18 5 36 90 25 115 29 125 60 143 39 23 87 25 107 4 15
-15 15 -25 -6 -122 -22 -101 -22 -130 -1 -109 10 10 50 181 50 214 0 52 -73
76 -134 45 -26 -14 -30 -14 -41 2 -12 17 -14 16 -24 -7z"/>
<path d="M7979 1644 c-86 -54 -105 -213 -30 -254 29 -15 94 -12 119 6 33 23
37 12 14 -39 -15 -34 -28 -47 -54 -56 -35 -12 -87 -3 -114 20 -10 8 -18 9 -25
2 -17 -17 28 -46 81 -51 62 -6 104 11 129 52 27 46 86 315 72 329 -9 9 -13 6
-17 -11 -8 -27 -6 -27 -46 -2 -39 24 -93 25 -129 4z m136 -36 l25 -23 -17 -70
c-15 -59 -23 -73 -52 -92 -40 -27 -68 -29 -99 -7 -52 36 -51 121 0 180 26 29
37 34 73 34 31 0 51 -7 70 -22z"/>
<path d="M8513 1647 c-8 -10 -84 -338 -83 -359 0 -5 6 -8 13 -8 8 0 18 24 26
62 17 81 19 84 47 57 32 -30 102 -32 141 -3 59 43 89 147 61 209 -23 50 -95
69 -152 40 -33 -17 -39 -19 -31 -6 9 15 -12 22 -22 8z m154 -32 c51 -36 32
-158 -31 -196 -37 -23 -67 -24 -106 -4 -37 19 -39 28 -23 105 11 47 22 71 41
87 32 27 87 30 119 8z"/>
<path d="M8904 1641 c-71 -44 -102 -159 -57 -219 37 -50 124 -63 181 -25 34
21 22 26 -30 12 -76 -21 -138 11 -138 71 l0 30 115 0 115 0 0 41 c0 33 -6 47
-34 75 -28 28 -41 34 -77 34 -26 0 -57 -8 -75 -19z m134 -33 c13 -13 22 -33
22 -50 l0 -28 -94 0 c-52 0 -97 4 -100 8 -9 16 34 73 67 87 38 17 74 11 105
-17z"/>
<path d="M9271 1638 c-49 -33 -72 -69 -78 -122 -9 -79 24 -127 98 -141 49 -9
117 29 147 80 32 55 27 135 -10 172 -38 38 -111 43 -157 11z m114 -14 c20 -8
45 -56 45 -86 -1 -68 -63 -138 -123 -138 -36 0 -75 36 -83 75 -18 96 74 182
161 149z"/>
<path d="M9614 1649 c-11 -13 -84 -322 -84 -355 0 -37 26 -3 38 51 7 33 15 61
17 64 2 2 17 -4 32 -14 37 -25 106 -24 141 2 45 33 66 81 67 146 0 54 -3 61
-33 88 -37 33 -94 39 -128 14 -25 -19 -32 -19 -36 2 -3 14 -5 14 -14 2z m146
-29 c29 -16 43 -71 30 -120 -25 -93 -112 -128 -179 -73 -22 18 -22 19 -5 91
12 53 23 77 41 92 28 21 83 26 113 10z"/>
<path d="M10172 1643 c-68 -33 -103 -144 -67 -212 23 -46 100 -69 159 -48 44
15 67 46 25 32 -13 -4 -43 -10 -66 -12 -37 -4 -46 -1 -73 25 -18 18 -30 41
-30 56 l0 26 114 0 c103 0 115 2 121 19 6 19 1 40 -18 79 -24 49 -102 66 -165
35z m97 -14 c18 -6 38 -24 47 -41 26 -51 16 -58 -91 -58 -84 0 -95 2 -95 18 1
24 29 58 65 76 36 19 34 19 74 5z"/>
<path d="M10435 1410 c-9 -15 4 -30 26 -30 12 0 19 7 19 20 0 21 -33 29 -45
10z"/>
<path d="M10607 1414 c-16 -16 -6 -35 16 -32 12 2 22 10 22 18 0 16 -26 25
-38 14z"/>
<path d="M10770 1400 c0 -16 5 -21 23 -18 12 2 22 10 22 18 0 8 -10 16 -22 18
-18 3 -23 -2 -23 -18z"/>
</g>
</svg>
