<svg width="54" height="46" viewBox="0 0 54 46" fill="none" xmlns="http://www.w3.org/2000/svg">
<path d="M15.1875 22.7216C17.19 22.7216 19.1476 22.1277 20.8126 21.0152C22.4777 19.9026 23.7754 18.3213 24.5418 16.4712C25.3081 14.6211 25.5086 12.5853 25.118 10.6213C24.7273 8.65722 23.763 6.85312 22.347 5.43711C20.9309 4.0211 19.1268 3.05679 17.1628 2.66612C15.1987 2.27544 13.1629 2.47595 11.3128 3.24229C9.46273 4.00862 7.88142 5.30637 6.76887 6.97142C5.65632 8.63646 5.0625 10.594 5.0625 12.5966C5.0625 15.2819 6.12924 17.8572 8.02804 19.756C9.92685 21.6548 12.5022 22.7216 15.1875 22.7216ZM15.1875 5.84657C16.5225 5.84657 17.8276 6.24245 18.9376 6.98415C20.0476 7.72584 20.9128 8.78005 21.4237 10.0135C21.9346 11.2469 22.0683 12.6041 21.8078 13.9134C21.5474 15.2228 20.9045 16.4255 19.9605 17.3695C19.0165 18.3135 17.8137 18.9564 16.5044 19.2169C15.195 19.4773 13.8378 19.3436 12.6044 18.8328C11.371 18.3219 10.3168 17.4567 9.57508 16.3467C8.83338 15.2366 8.4375 13.9316 8.4375 12.5966C8.4375 10.8064 9.14866 9.08946 10.4145 7.82359C11.6804 6.55772 13.3973 5.84657 15.1875 5.84657ZM40.5 18.9922C42.3357 18.9922 44.1301 18.4479 45.6564 17.428C47.1827 16.4082 48.3723 14.9586 49.0748 13.2627C49.7772 11.5668 49.961 9.70064 49.6029 7.90026C49.2448 6.09987 48.3608 4.44611 47.0628 3.14811C45.7648 1.8501 44.1111 0.966147 42.3107 0.608028C40.5103 0.249909 38.6441 0.433709 36.9482 1.13618C35.2523 1.83866 33.8028 3.02826 32.7829 4.55455C31.7631 6.08085 31.2188 7.87528 31.2188 9.71094C31.2188 12.1725 32.1966 14.5332 33.9372 16.2738C35.6777 18.0143 38.0385 18.9922 40.5 18.9922ZM40.5 3.87219C41.6681 3.87219 42.8101 4.21859 43.7813 4.86757C44.7526 5.51656 45.5096 6.43899 45.9567 7.51822C46.4037 8.59744 46.5207 9.78499 46.2928 10.9307C46.0649 12.0764 45.5024 13.1288 44.6764 13.9548C43.8503 14.7808 42.798 15.3433 41.6523 15.5712C40.5066 15.7991 39.319 15.6821 38.2398 15.2351C37.1606 14.7881 36.2381 14.0311 35.5891 13.0598C34.9401 12.0885 34.5938 10.9466 34.5938 9.77844C34.5938 8.212 35.216 6.70973 36.3236 5.60209C37.4313 4.49445 38.9336 3.87219 40.5 3.87219ZM54 30.6359V38.2297C54 38.6772 53.8222 39.1065 53.5057 39.4229C53.1893 39.7394 52.7601 39.9172 52.3125 39.9172H32.0625V36.5H50.625V30.5937C50.625 28.1975 47.0222 24.6875 40.5 24.6875C34.2225 24.6875 30.6619 27.9022 30.375 30.2816C29.6639 29.2634 28.8116 28.3514 27.8438 27.5731C29.5903 24.1981 34.1128 21.3884 40.5 21.3884C48.8363 21.3884 54 26.1894 54 30.6359ZM1.6875 45.5028H28.6875C29.1351 45.5028 29.5643 45.325 29.8807 45.0085C30.1972 44.6921 30.375 44.2629 30.375 43.8153V35.3778C30.375 30.5094 24.57 25.2528 15.1875 25.2528C5.805 25.2528 0 30.5094 0 35.3778V43.8153C0 44.2629 0.17779 44.6921 0.494257 45.0085C0.810725 45.325 1.23995 45.5028 1.6875 45.5028ZM3.375 35.3778C3.375 32.6187 7.59375 28.6278 15.1875 28.6278C22.7812 28.6278 27 32.6187 27 35.3778V42.1278H3.375V35.3778Z" fill="#166FD3"/>
</svg>
