<svg width="59" height="49" viewBox="0 0 59 49" fill="none" xmlns="http://www.w3.org/2000/svg">
<path d="M10.74 0.380859C7.79566 0.380859 5.38003 2.79648 5.38003 5.74085C5.38003 6.7747 5.68397 7.74697 6.1966 8.56741C4.26735 9.00172 2.70003 10.4549 2.70003 12.4408V20.4808H1.36003C1.31818 20.4789 1.27626 20.4789 1.23441 20.4808C0.901231 20.5122 0.591858 20.6672 0.367132 20.9151C0.142406 21.1631 0.018589 21.4862 0.020032 21.8208V27.1808C0.0200675 27.5362 0.161257 27.877 0.412548 28.1283C0.663839 28.3796 1.00465 28.5208 1.36003 28.5208H5.38003V47.2808C5.38007 47.6362 5.52126 47.977 5.77255 48.2283C6.02384 48.4796 6.36466 48.6208 6.72004 48.6208H52.28C52.6354 48.6208 52.9762 48.4796 53.2275 48.2283C53.4788 47.977 53.62 47.6362 53.62 47.2808V28.5208H57.6401C57.9954 28.5208 58.3362 28.3796 58.5875 28.1283C58.8388 27.877 58.98 27.5362 58.9801 27.1808V21.8208C58.98 21.4655 58.8388 21.1246 58.5875 20.8734C58.3362 20.6221 57.9954 20.4809 57.6401 20.4808H56.3001V12.4408C56.3001 10.4549 54.7327 9.00172 52.8035 8.56741C53.3161 7.74697 53.62 6.7747 53.62 5.74085C53.62 2.79648 51.2044 0.380859 48.26 0.380859C45.3157 0.380859 42.9 2.79648 42.9 5.74085C42.9 6.7747 43.204 7.74697 43.7166 8.56741C41.7874 9.00172 40.22 10.4549 40.22 12.4408V19.1408V20.4808H37.54V19.1408V12.4408C37.54 10.4549 35.9727 9.00172 34.0435 8.56741C34.5561 7.74697 34.86 6.7747 34.86 5.74085C34.86 2.79648 32.4444 0.380859 29.5 0.380859C26.5557 0.380859 24.14 2.79648 24.14 5.74085C24.14 6.7747 24.444 7.74697 24.9566 8.56741C23.0274 9.00172 21.46 10.4549 21.46 12.4408V20.4808H18.78V19.1408V12.4408C18.78 10.4549 17.2127 9.00172 15.2835 8.56741C15.7961 7.74697 16.1 6.7747 16.1 5.74085C16.1 2.79648 13.6844 0.380859 10.74 0.380859ZM10.74 3.06086C12.236 3.06086 13.42 4.24486 13.42 5.74085C13.42 7.23685 12.236 8.42085 10.74 8.42085C9.24404 8.42085 8.06004 7.23685 8.06004 5.74085C8.06004 4.24486 9.24404 3.06086 10.74 3.06086ZM29.5 3.06086C30.996 3.06086 32.18 4.24486 32.18 5.74085C32.18 7.23685 30.996 8.42085 29.5 8.42085C28.004 8.42085 26.82 7.23685 26.82 5.74085C26.82 4.24486 28.004 3.06086 29.5 3.06086ZM48.26 3.06086C49.756 3.06086 50.94 4.24486 50.94 5.74085C50.94 7.23685 49.756 8.42085 48.26 8.42085C46.7641 8.42085 45.58 7.23685 45.58 5.74085C45.58 4.24486 46.7641 3.06086 48.26 3.06086ZM7.39004 11.1008H14.09C15.3706 11.1008 16.1 11.8551 16.1 12.4408V19.1408V20.4808H5.38003V12.4408C5.38003 11.8551 6.10948 11.1008 7.39004 11.1008ZM26.15 11.1008H32.85C34.1306 11.1008 34.86 11.8551 34.86 12.4408V19.1408V20.4808H24.14V12.4408C24.14 11.8551 24.8695 11.1008 26.15 11.1008ZM44.91 11.1008H48.26H51.6101C52.8906 11.1008 53.62 11.8551 53.62 12.4408V20.4808H42.9V19.1408V12.4408C42.9 11.8551 43.6295 11.1008 44.91 11.1008ZM2.70003 23.1608H56.3001V25.8408H2.70003V23.1608ZM8.06004 28.5208H50.94V45.9408H8.06004V28.5208Z" fill="#166FD3"/>
</svg>
