<svg width="62" height="62" viewBox="0 0 62 62" fill="none" xmlns="http://www.w3.org/2000/svg">
<path d="M31 4.35938C16.3101 4.35938 4.35938 16.3101 4.35938 31C4.35938 45.6899 16.3101 57.6406 31 57.6406C45.6899 57.6406 57.6406 45.6899 57.6406 31C57.6406 16.3101 45.6899 4.35938 31 4.35938ZM31 54.9766C17.779 54.9766 7.02344 44.221 7.02344 31C7.02344 17.779 17.779 7.02344 31 7.02344C44.221 7.02344 54.9766 17.779 54.9766 31C54.9766 44.221 44.221 54.9766 31 54.9766Z" fill="#166FD3"/>
<path d="M48.6676 28.055H45.4162C45.0422 26.2104 44.3152 24.4555 43.2753 22.8867L45.5761 20.5859C45.7599 20.4018 45.8631 20.1523 45.8631 19.8921C45.8631 19.6319 45.7599 19.3823 45.5761 19.1982L42.7994 16.4215C42.6152 16.2377 42.3657 16.1344 42.1055 16.1344C41.8453 16.1344 41.5958 16.2377 41.4116 16.4215L39.1109 18.7223C37.5441 17.6784 35.7904 16.9469 33.9462 16.568V13.3324C33.9459 13.0722 33.8423 12.8227 33.6581 12.6388C33.474 12.4549 33.2244 12.3516 32.9641 12.3516H29.0371C28.7768 12.3516 28.5272 12.4549 28.3431 12.6388C28.1589 12.8227 28.0553 13.0722 28.055 13.3324V16.5729C26.2101 16.9498 24.4552 17.6792 22.8867 18.7211L20.5859 16.4203C20.4018 16.2365 20.1523 16.1332 19.8921 16.1332C19.6319 16.1332 19.3823 16.2365 19.1982 16.4203L16.4215 19.197C16.2377 19.3811 16.1344 19.6307 16.1344 19.8909C16.1344 20.151 16.2377 20.4006 16.4215 20.5847L18.7223 22.8855C17.6843 24.4554 16.9582 26.2105 16.5838 28.055H13.3324C13.0722 28.0553 12.8227 28.1589 12.6388 28.3431C12.4549 28.5272 12.3516 28.7768 12.3516 29.0371V32.9629C12.3516 33.2232 12.4549 33.4728 12.6388 33.6569C12.8227 33.8411 13.0722 33.9447 13.3324 33.945H16.5729C16.9498 35.7899 17.6792 37.5448 18.7211 39.1133L16.4203 41.4141C16.2365 41.5982 16.1332 41.8477 16.1332 42.1079C16.1332 42.3681 16.2365 42.6177 16.4203 42.8018L19.197 45.5785C19.3811 45.7623 19.6307 45.8656 19.8909 45.8656C20.151 45.8656 20.4006 45.7623 20.5847 45.5785L22.8855 43.2777C24.4544 44.3198 26.2097 45.0492 28.055 45.4259V48.6652C28.055 48.9256 28.1585 49.1754 28.3426 49.3596C28.5268 49.5438 28.7766 49.6472 29.0371 49.6472H32.9629C33.2234 49.6472 33.4732 49.5438 33.6574 49.3596C33.8415 49.1754 33.945 48.9256 33.945 48.6652V45.4271C35.7899 45.0502 37.5448 44.3208 39.1133 43.2789L41.4141 45.5797C41.5982 45.7635 41.8477 45.8668 42.1079 45.8668C42.3681 45.8668 42.6177 45.7635 42.8018 45.5797L45.5785 42.803C45.7623 42.6189 45.8656 42.3693 45.8656 42.1091C45.8656 41.849 45.7623 41.5994 45.5785 41.4153L43.2777 39.1145C44.3197 37.5456 45.0492 35.7903 45.4259 33.945H48.6676C48.9278 33.9447 49.1773 33.8411 49.3612 33.6569C49.5451 33.4728 49.6484 33.2232 49.6484 32.9629V29.0371C49.6484 28.7768 49.5451 28.5272 49.3612 28.3431C49.1773 28.1589 48.9278 28.0553 48.6676 28.055ZM31 38.9922C29.4193 38.9922 27.8741 38.5235 26.5598 37.6453C25.2455 36.7671 24.2211 35.5189 23.6162 34.0585C23.0113 32.5981 22.853 30.9911 23.1614 29.4408C23.4698 27.8905 24.2309 26.4664 25.3487 25.3487C26.4664 24.2309 27.8905 23.4698 29.4408 23.1614C30.9911 22.853 32.5981 23.0113 34.0585 23.6162C35.5189 24.2211 36.7671 25.2455 37.6453 26.5598C38.5235 27.8741 38.9922 29.4193 38.9922 31C38.9922 33.1197 38.1502 35.1525 36.6513 36.6513C35.1525 38.1502 33.1197 38.9922 31 38.9922Z" fill="#166FD3"/>
</svg>
