<svg width="70" height="70" viewBox="0 0 70 70" fill="none" xmlns="http://www.w3.org/2000/svg">
<g clip-path="url(#clip0_4403_4400)">
<path d="M67.997 30.3081C66.1675 28.5805 63.4361 28.3604 61.3568 29.7716L46.6035 39.77C46.8566 37.3407 45.4769 34.9649 43.156 34.0293L37.2074 31.6308C31.675 29.3999 25.5895 29.4167 20.0721 31.6787L13.0571 34.5522C11.8839 33.6356 10.4212 33.1134 8.86129 33.1134C7.80079 33.1134 6.77949 33.3545 5.82504 33.8309L2.09928 35.6939C1.27783 36.1038 0.665684 36.8097 0.375184 37.6809C0.0850341 38.551 0.151534 39.4823 0.561734 40.3038L10.675 60.5289C11.2616 61.6996 12.4393 62.4266 13.7487 62.4266C14.2754 62.4266 14.8046 62.3023 15.2838 62.0643L19.0095 60.2006C20.637 59.3875 21.8498 57.99 22.4245 56.2659C22.6656 55.5421 22.7748 54.7969 22.7689 54.0553L39.0288 54.4091C39.1398 54.4116 39.2507 54.4126 39.3613 54.4126C42.379 54.4126 45.2889 53.5198 47.7967 51.8205L67.3292 38.5828C68.6725 37.6721 69.5177 36.2228 69.6483 34.6051C69.7781 32.9877 69.1761 31.4215 67.997 30.3081ZM19.104 55.1592C18.8251 55.9964 18.236 56.6747 17.4443 57.0702L13.776 58.9052L3.72119 38.7963L7.38884 36.9623C7.85224 36.731 8.34749 36.6137 8.86094 36.6137C10.1258 36.6137 11.2626 37.3141 11.8265 38.4407L18.9227 52.6346C19.3189 53.4253 19.383 54.322 19.104 55.1592ZM66.1591 34.3233C66.1143 34.877 65.8249 35.3733 65.365 35.6852L45.8329 48.9225C43.8375 50.2746 41.5166 50.9679 39.1044 50.9095L21.7854 50.5329L15.2397 37.4408L21.399 34.9176C26.068 33.0038 31.2172 32.9898 35.8984 34.877L41.8474 37.2756C42.8026 37.6606 43.3303 38.7029 43.0752 39.7021C42.7917 40.8144 41.7732 41.5414 40.6493 41.4696C40.6178 41.4647 40.586 41.464 40.5545 41.4591L29.6177 39.595C28.6646 39.4323 27.7609 40.0735 27.5985 41.0262C27.4361 41.9789 28.0766 42.8829 29.0293 43.0453L29.4283 43.1132L29.4112 43.2203C29.4112 43.2203 35.6657 44.2192 39.8576 44.8989C39.9395 44.9122 40.0207 44.9189 40.1023 44.9287C42.8152 45.3315 45.5511 44.7113 47.8237 43.1713L63.3206 32.6689C64.0318 32.1862 64.967 32.2615 65.5932 32.8533C65.9978 33.2341 66.2036 33.77 66.1591 34.3233Z" fill="#166FD3"/>
<path d="M43.3801 30.4091H37.2569C36.2902 30.4091 35.5069 29.6255 35.5069 28.6591V22.5628H29.4116C28.4453 22.5628 27.6616 21.7792 27.6616 20.8128V14.692C27.6616 13.7257 28.4453 12.942 29.4116 12.942H35.5072V6.8457C35.5072 5.87935 36.2905 5.0957 37.2572 5.0957H43.3805C44.3472 5.0957 45.1305 5.87935 45.1305 6.8457V12.942H51.2236C52.1903 12.942 52.9736 13.7257 52.9736 14.692V20.8128C52.9736 21.7792 52.1903 22.5628 51.2236 22.5628H45.1305V28.6591C45.1301 29.6258 44.3468 30.4091 43.3801 30.4091ZM39.0069 26.9091H41.6301V20.8128C41.6301 19.8465 42.4134 19.0628 43.3801 19.0628H49.4733V16.442H43.3801C42.4134 16.442 41.6301 15.6584 41.6301 14.692V8.5957H39.0069V14.692C39.0069 15.6584 38.2236 16.442 37.2569 16.442H31.1616V19.0628H37.2572C38.2239 19.0628 39.0072 19.8465 39.0072 20.8128L39.0069 26.9091Z" fill="#166FD3"/>
</g>
<defs>
<clipPath id="clip0_4403_4400">
<rect width="70" height="70" fill="white"/>
</clipPath>
</defs>
</svg>
