<svg width="65" height="65" viewBox="0 0 65 65" fill="none" xmlns="http://www.w3.org/2000/svg">
<path d="M62.3807 43.3443L44.6519 32.4997L62.38 21.655C62.685 21.4681 62.9036 21.1678 62.9872 20.8197C63.0709 20.4715 63.0129 20.1045 62.8266 19.7995L57.6172 11.2839C57.2292 10.6483 56.3973 10.448 55.7617 10.8366L38.8385 21.1894V1.34943C38.8385 0.604544 38.234 0 37.4891 0H27.508C26.7631 0 26.1586 0.604544 26.1586 1.34943V21.1894L9.23473 10.8373C8.5978 10.4486 7.7679 10.6483 7.37926 11.2846L2.16979 19.8002C1.98357 20.1052 1.92554 20.4722 2.00921 20.8203C2.09287 21.1685 2.31148 21.4687 2.61645 21.6556L20.3453 32.4997L2.61645 43.3443C2.31148 43.5306 2.09287 43.8315 2.00921 44.179C1.92554 44.5278 1.98357 44.8948 2.16979 45.1998L7.37926 53.7147C7.7679 54.3503 8.5978 54.5514 9.23473 54.1627L26.1586 43.8099V63.6499C26.1586 64.3948 26.7631 64.9993 27.508 64.9993H37.4891C38.234 64.9993 38.8385 64.3948 38.8385 63.6499V43.8106L55.7624 54.1621C56.398 54.5507 57.2299 54.3503 57.6179 53.7154L62.8273 45.1998C63.0135 44.8948 63.0716 44.5278 62.9879 44.1796C62.9049 43.8308 62.6856 43.5312 62.3807 43.3443Z" fill="#D6111E"/>
</svg>
